<svg width="23" height="25" viewBox="0 0 23 25" fill="none" xmlns="http://www.w3.org/2000/svg">
<path d="M11.5 23.7495C11.1054 23.7495 10.7176 23.6466 10.375 23.4508L2.5 18.9418C1.80362 18.5436 1.375 17.8078 1.375 17.0102V7.98995C1.375 7.19345 1.80362 6.45657 2.5 6.0572L10.375 1.5482C10.7176 1.35246 11.1054 1.24951 11.5 1.24951C11.8946 1.24951 12.2824 1.35246 12.625 1.5482L20.5 6.0572C20.8411 6.25149 21.1248 6.53247 21.3223 6.87167C21.5199 7.21088 21.6243 7.59628 21.625 7.98882V17.0091C21.625 17.8056 21.1964 18.5424 20.5 18.9418L12.625 23.4508C12.2824 23.6466 11.8946 23.7495 11.5 23.7495ZM11.5 23.7495V12.5001M11.5 12.5001L21.3212 6.83007M11.5 12.5001L1.67875 6.83007" stroke="white" stroke-width="2" stroke-linecap="round" stroke-linejoin="round"/>
</svg>
