<svg width="18" height="12" viewBox="0 0 18 12" fill="none" xmlns="http://www.w3.org/2000/svg">
<path d="M17.9936 2.29349L18 2.21891V2.0672L17.9936 1.99263L17.982 1.91548L17.9691 1.84862L17.928 1.70976L17.8933 1.62362L17.8033 1.4539L17.7197 1.33818L17.6258 1.23404L17.505 1.12732L17.406 1.05789L17.2826 0.988461L17.2363 0.966603L17.1501 0.931888L17.0113 0.890744L16.9431 0.877887L16.866 0.865029L16.7927 0.859886L16.7168 0.857315H1.28793C0.19248 0.857315 -0.379675 2.12506 0.281197 2.94407L0.378912 3.05208L8.09336 10.7665C8.31476 10.9879 8.60932 11.1209 8.92179 11.1405C9.23426 11.1602 9.54316 11.0651 9.79054 10.8732L9.9114 10.7665L17.6258 3.05208L17.7326 2.93122L17.802 2.83221L17.8714 2.70878L17.8933 2.6625L17.928 2.57635L17.9691 2.43749L17.982 2.36935L17.9949 2.2922L17.9936 2.29349Z" fill="#DBDBDB"/>
</svg>
