<svg width="21" height="23" viewBox="0 0 21 23" fill="none" xmlns="http://www.w3.org/2000/svg">
<path d="M19.5 6.4375V16.5625L15 19.0938M19.5 6.4375L15 3.90625M19.5 6.4375L10.5 11.5M15 19.0938L10.5 21.625M15 19.0938V13.75L19.5 11.5M10.5 21.625L6 19.0938M10.5 21.625V11.5M6 19.0938L1.5 16.5625V6.4375M6 19.0938V13.75L1.5 11.5M1.5 6.4375L6 3.90625M1.5 6.4375L10.5 11.5M6 3.90625L10.5 1.375L15 3.90625M6 3.90625L10.5 6.4375L15 3.90625" stroke="white" stroke-width="2" stroke-linecap="round" stroke-linejoin="round"/>
</svg>
