<svg width="23" height="19" viewBox="0 0 23 19" fill="none" xmlns="http://www.w3.org/2000/svg">
<path d="M23 7.12598V14.251C23 15.5108 22.5154 16.7189 21.6527 17.6097C20.79 18.5005 19.62 19.001 18.4 19.001H4.6C3.38 19.001 2.20998 18.5005 1.34731 17.6097C0.484642 16.7189 0 15.5108 0 14.251V7.12598H23ZM5.7615 11.876H5.75C5.59898 11.8768 5.44959 11.9082 5.31035 11.9686C5.17112 12.029 5.04476 12.1172 4.93851 12.228C4.72392 12.4518 4.60423 12.7545 4.60575 13.0694C4.6065 13.2254 4.637 13.3796 4.69549 13.5234C4.75398 13.6672 4.83932 13.7976 4.94664 13.9074C5.05396 14.0171 5.18116 14.1039 5.32098 14.1629C5.46079 14.2218 5.61048 14.2518 5.7615 14.251C6.0665 14.251 6.35901 14.1259 6.57467 13.9032C6.79034 13.6805 6.9115 13.3784 6.9115 13.0635C6.9115 12.7485 6.79034 12.4465 6.57467 12.2238C6.35901 12.0011 6.0665 11.876 5.7615 11.876ZM12.65 11.876H10.35C10.045 11.876 9.75249 12.0011 9.53683 12.2238C9.32116 12.4465 9.2 12.7485 9.2 13.0635C9.2 13.3784 9.32116 13.6805 9.53683 13.9032C9.75249 14.1259 10.045 14.251 10.35 14.251H12.65C12.955 14.251 13.2475 14.1259 13.4632 13.9032C13.6788 13.6805 13.8 13.3784 13.8 13.0635C13.8 12.7485 13.6788 12.4465 13.4632 12.2238C13.2475 12.0011 12.955 11.876 12.65 11.876ZM18.4 0.000976562C19.62 0.000976563 20.79 0.501421 21.6527 1.39222C22.5154 2.28302 23 3.4912 23 4.75098H0C0 3.4912 0.484642 2.28302 1.34731 1.39222C2.20998 0.501421 3.38 0.000976563 4.6 0.000976562H18.4Z" fill="#F8F8F8"/>
</svg>
