<svg width="29" height="28" viewBox="0 0 29 28" fill="none" xmlns="http://www.w3.org/2000/svg">
<path fill-rule="evenodd" clip-rule="evenodd" d="M14.2341 0C6.50248 0 0.233398 6.42534 0.233398 14.357C0.233398 20.7011 4.24611 26.0764 9.8089 27.9765C10.5089 28.1077 10.7652 27.664 10.7652 27.2827C10.7652 26.9389 10.7527 26.0389 10.7465 24.8388C6.8525 25.7076 6.02745 22.9137 6.02745 22.9137C5.38992 21.2574 4.47112 20.8136 4.47112 20.8136C3.20231 19.9198 4.56488 19.9386 4.56488 19.9386C5.9712 20.0386 6.70874 21.4199 6.70874 21.4199C7.95881 23.6137 9.98391 22.9825 10.784 22.6137C10.909 21.6886 11.2715 21.0511 11.6715 20.6948C8.56509 20.3323 5.29617 19.101 5.29617 13.6007C5.29617 12.0319 5.83994 10.7506 6.73374 9.75051C6.58998 9.38799 6.10871 7.92542 6.87125 5.95031C6.87125 5.95031 8.04631 5.56279 10.7215 7.41914C11.8403 7.10037 13.0341 6.94412 14.2279 6.93787C15.4154 6.94412 16.6155 7.10037 17.7343 7.41914C20.4095 5.56279 21.5783 5.95031 21.5783 5.95031C22.3408 7.92542 21.8595 9.38799 21.7158 9.75051C22.6096 10.7568 23.1534 12.0381 23.1534 13.6007C23.1534 19.1135 19.8782 20.3261 16.7593 20.6823C17.2593 21.1261 17.7093 22.0012 17.7093 23.3387C17.7093 25.2576 17.6906 26.8077 17.6906 27.2764C17.6906 27.6577 17.9406 28.1077 18.6531 27.964C24.2284 26.0701 28.2349 20.6948 28.2349 14.357C28.2349 6.42534 21.9658 0 14.2341 0Z" fill="white"/>
</svg>
