<svg width="29" height="28" viewBox="0 0 29 28" fill="none" xmlns="http://www.w3.org/2000/svg">
<path d="M14.2334 0C10.4312 0 9.95446 0.0161162 8.46122 0.0842488C6.97108 0.15227 5.95337 0.3889 5.06281 0.73501C4.14219 1.09279 3.36144 1.5715 2.58314 2.3498C1.80484 3.1281 1.32613 3.90884 0.968353 4.82947C0.622243 5.71997 0.385613 6.73768 0.317592 8.22782C0.249459 9.72107 0.233398 10.1978 0.233398 14C0.233398 17.8022 0.249459 18.2789 0.317592 19.7722C0.385613 21.2623 0.622243 22.28 0.968353 23.1705C1.32613 24.0912 1.80484 24.8719 2.58314 25.6503C3.36144 26.4286 4.14219 26.9073 5.06281 27.265C5.95337 27.6111 6.97108 27.8478 8.46122 27.9158C9.95446 27.9839 10.4312 28 14.2334 28C18.0356 28 18.5123 27.9839 20.0056 27.9158C21.4957 27.8478 22.5134 27.6111 23.4039 27.265C24.3246 26.9073 25.1053 26.4286 25.8837 25.6503C26.662 24.8719 27.1407 24.0912 27.4984 23.1705C27.8445 22.28 28.0812 21.2623 28.1492 19.7722C28.2173 18.2789 28.2334 17.8022 28.2334 14C28.2334 10.1978 28.2173 9.72107 28.1492 8.22782C28.0812 6.73768 27.8445 5.71997 27.4984 4.82947C27.1407 3.90884 26.662 3.1281 25.8837 2.3498C25.1053 1.5715 24.3246 1.09279 23.4039 0.73501C22.5134 0.3889 21.4957 0.15227 20.0056 0.0842488C18.5123 0.0161162 18.0356 0 14.2334 0ZM14.2334 2.52257C17.9715 2.52257 18.4144 2.5368 19.8906 2.60415C21.2556 2.66645 21.9969 2.89452 22.4902 3.0862C23.1437 3.34016 23.6101 3.64359 24.0999 4.13347C24.5899 4.62335 24.8932 5.08977 25.1472 5.7432C25.3389 6.23652 25.567 6.97781 25.6292 8.3428C25.6966 9.81904 25.7109 10.2618 25.7109 14C25.7109 17.7382 25.6966 18.181 25.6292 19.6572C25.567 21.0222 25.3389 21.7635 25.1472 22.2568C24.8932 22.9103 24.5899 23.3767 24.0999 23.8665C23.6101 24.3565 23.1437 24.6598 22.4902 24.9138C21.9969 25.1055 21.2556 25.3336 19.8906 25.3958C18.4146 25.4632 17.9718 25.4775 14.2334 25.4775C10.495 25.4775 10.0523 25.4632 8.5762 25.3958C7.21121 25.3336 6.46992 25.1055 5.9766 24.9138C5.32312 24.6598 4.85675 24.3565 4.36681 23.8665C3.87694 23.3767 3.57351 22.9103 3.31959 22.2568C3.12787 21.7635 2.8998 21.0222 2.8375 19.6572C2.77014 18.181 2.75592 17.7382 2.75592 14C2.75592 10.2618 2.77014 9.81904 2.8375 8.3428C2.8998 6.97781 3.12787 6.23652 3.31959 5.7432C3.57351 5.08977 3.87694 4.62335 4.36681 4.13347C4.85675 3.64359 5.32312 3.34016 5.9766 3.0862C6.46992 2.89452 7.21121 2.66645 8.5762 2.60415C10.0524 2.5368 10.4952 2.52257 14.2334 2.52257Z" fill="white"/>
<path d="M14.2334 18.6669C11.6561 18.6669 9.56675 16.5776 9.56675 14.0003C9.56675 11.4229 11.6561 9.3336 14.2334 9.3336C16.8108 9.3336 18.9001 11.4229 18.9001 14.0003C18.9001 16.5776 16.8108 18.6669 14.2334 18.6669ZM14.2334 6.81108C10.2629 6.81108 7.04423 10.0298 7.04423 14.0003C7.04423 17.9708 10.2629 21.1894 14.2334 21.1894C18.2039 21.1894 21.4226 17.9708 21.4226 14.0003C21.4226 10.0298 18.2039 6.81108 14.2334 6.81108Z" fill="white"/>
<path d="M23.3866 6.52678C23.3866 7.45463 22.6344 8.20675 21.7065 8.20675C20.7787 8.20675 20.0265 7.45463 20.0265 6.52678C20.0265 5.59893 20.7787 4.8468 21.7065 4.8468C22.6344 4.8468 23.3866 5.59893 23.3866 6.52678Z" fill="white"/>
</svg>
