<svg width="29" height="28" viewBox="0 0 29 28" fill="none" xmlns="http://www.w3.org/2000/svg">
<path fill-rule="evenodd" clip-rule="evenodd" d="M24.8125 0C26.7006 0 28.2334 1.53289 28.2334 3.42092V24.5791C28.2334 26.4671 26.7005 28 24.8125 28H3.65432C1.76629 28 0.233398 26.4671 0.233398 24.5791V3.42092C0.233398 1.53289 1.76623 0 3.65432 0L24.8125 0ZM9.00861 23.148V10.8041H4.90486V23.148H9.00861ZM23.8037 23.148V16.0693C23.8037 12.2777 21.7793 10.5138 19.0798 10.5138C16.903 10.5138 15.9279 11.711 15.3819 12.5518V10.8041H11.2792C11.3336 11.9625 11.2792 23.148 11.2792 23.148H15.3819V16.2543C15.3819 15.8853 15.4085 15.5165 15.5172 15.2527C15.8133 14.5158 16.4888 13.7524 17.6223 13.7524C19.1063 13.7524 19.7008 14.8848 19.7008 16.5435V23.148H23.8037ZM6.98446 4.85198C5.58041 4.85198 4.66309 5.77505 4.66309 6.98491C4.66309 8.16933 5.55252 9.11783 6.93016 9.11783H6.95662C8.38752 9.11783 9.27822 8.16933 9.27822 6.98491C9.2517 5.77675 8.39004 4.85461 6.98446 4.85198Z" fill="white"/>
</svg>
