<svg width="23" height="19" viewBox="0 0 23 19" fill="none" xmlns="http://www.w3.org/2000/svg">
<path d="M4.75 6.125H9.25M7 6.125V12.875M12.625 12.875V6.125L14.875 9.5L17.125 6.125V12.875M1.375 3.875C1.375 3.27826 1.61205 2.70597 2.03401 2.28401C2.45597 1.86205 3.02826 1.625 3.625 1.625H19.375C19.9717 1.625 20.544 1.86205 20.966 2.28401C21.3879 2.70597 21.625 3.27826 21.625 3.875V15.125C21.625 15.7217 21.3879 16.294 20.966 16.716C20.544 17.1379 19.9717 17.375 19.375 17.375H3.625C3.02826 17.375 2.45597 17.1379 2.03401 16.716C1.61205 16.294 1.375 15.7217 1.375 15.125V3.875Z" stroke="white" stroke-width="2" stroke-linecap="round" stroke-linejoin="round"/>
</svg>
