<svg width="25" height="19" viewBox="0 0 25 19" fill="none" xmlns="http://www.w3.org/2000/svg">
<path d="M7.99977 0.5C7.56854 0.502429 7.14319 0.600213 6.7542 0.786346C6.36521 0.972479 6.0222 1.24235 5.74977 1.57662L0.850391 7.47162C0.383288 8.04228 0.127417 8.75665 0.125983 9.4941C0.124548 10.2315 0.377637 10.9469 0.842516 11.5194L5.75652 17.4324C6.31789 18.1074 7.13352 18.5 7.99977 18.5C8.43099 18.4976 8.85634 18.3998 9.24533 18.2137C9.63432 18.0275 9.97733 17.7576 10.2498 17.4234L15.1491 11.5284C15.6162 10.9577 15.8721 10.2434 15.8735 9.5059C15.875 8.76845 15.6219 8.0531 15.157 7.48063L10.243 1.56762C9.97074 1.23552 9.6285 0.967625 9.24073 0.783072C8.85295 0.59852 8.42921 0.501862 7.99977 0.5Z" fill="white"/>
<path d="M17.4299 0.740796C17.6451 0.571583 17.9147 0.486683 18.1881 0.502009C18.4615 0.517335 18.7199 0.631834 18.9149 0.824046L19.0094 0.929796L24.1574 7.48067C25.0664 8.5978 25.1114 10.1762 24.3036 11.327L24.1686 11.5048L19.0094 18.0703C18.8326 18.2953 18.5768 18.4444 18.2939 18.4875C18.011 18.5305 17.7224 18.4641 17.4868 18.3018C17.2511 18.1396 17.0861 17.8936 17.0254 17.614C16.9647 17.3344 17.0128 17.0422 17.1599 16.7968L17.2409 16.6798L22.4114 10.0985C22.5355 9.9449 22.6088 9.75639 22.6209 9.5592C22.633 9.36202 22.5833 9.16597 22.4789 8.9983L22.4001 8.8858L17.2409 2.3203C17.0565 2.08576 16.9729 1.78761 17.0083 1.49141C17.0438 1.19521 17.1954 0.925212 17.4299 0.740796Z" fill="white"/>
<path d="M12.9299 0.740796C13.1451 0.571583 13.4147 0.486683 13.6881 0.502009C13.9615 0.517335 14.2199 0.631834 14.4149 0.824046L14.5094 0.929796L19.6574 7.48067C20.5664 8.5978 20.6114 10.1762 19.8036 11.327L19.6686 11.5048L14.5094 18.0703C14.3326 18.2953 14.0768 18.4444 13.7939 18.4875C13.511 18.5305 13.2224 18.4641 12.9868 18.3018C12.7511 18.1396 12.5861 17.8936 12.5254 17.614C12.4647 17.3344 12.5128 17.0422 12.6599 16.7968L12.7409 16.6798L17.9114 10.0985C18.0355 9.9449 18.1088 9.75639 18.1209 9.5592C18.133 9.36202 18.0833 9.16597 17.9789 8.9983L17.9001 8.8858L12.7409 2.3203C12.5565 2.08576 12.4729 1.78761 12.5083 1.49141C12.5438 1.19521 12.6954 0.925212 12.9299 0.740796Z" fill="white"/>
</svg>
