<svg width="26" height="26" viewBox="0 0 26 26" fill="none" xmlns="http://www.w3.org/2000/svg">
<path d="M11.7373 2.44824C12.5229 1.80745 13.6818 1.85367 14.4141 2.58594L23.4141 11.5859C24.1951 12.367 24.1951 13.633 23.4141 14.4141L14.4141 23.4141C13.633 24.1951 12.367 24.1951 11.5859 23.4141L2.58594 14.4141C1.80489 13.633 1.80489 12.367 2.58594 11.5859L11.5859 2.58594L11.7373 2.44824Z" fill="#222222" stroke="#222222" stroke-width="4" stroke-linejoin="round"/>
<path d="M21.9998 12.9993L12.9998 21.9993L3.99985 12.9993L12.9998 3.99929L21.9998 12.9993Z" fill="white"/>
<path d="M11.5198 3.61329C11.8916 3.24172 12.3894 3.02346 12.9145 3.00178C13.4397 2.98011 13.9538 3.15662 14.3548 3.49629L14.4808 3.61329L22.3858 11.5183C23.1628 12.2953 23.2018 13.5313 22.5028 14.3543L22.3858 14.4803L14.4808 22.3853C14.1092 22.7573 13.6111 22.9759 13.0857 22.9976C12.5603 23.0193 12.0459 22.8425 11.6448 22.5023L11.5188 22.3853L3.61185 14.4793C3.24078 14.1072 3.02302 13.6093 3.00172 13.0842C2.98042 12.5591 3.15714 12.0452 3.49685 11.6443L3.61385 11.5183L11.5188 3.61329H11.5198ZM17.4888 13.1483L17.4988 13.0323L17.4958 12.9123L17.4798 12.7983L17.4498 12.6883L17.4058 12.5763L17.3538 12.4783L17.2778 12.3733L17.2078 12.2923L13.7078 8.79229L13.6128 8.70929C13.4375 8.57322 13.2218 8.49937 12.9998 8.49937C12.7779 8.49937 12.5622 8.57322 12.3868 8.70929L12.2928 8.79229L12.2098 8.88629C12.0738 9.06166 11.9999 9.27732 11.9999 9.49929C11.9999 9.72126 12.0738 9.93692 12.2098 10.1123L12.2928 10.2063L14.0848 11.9993H8.99985L8.88285 12.0063C8.6398 12.0352 8.41579 12.1522 8.25326 12.3353C8.09073 12.5183 8.00096 12.7545 8.00096 12.9993C8.00096 13.2441 8.09073 13.4803 8.25326 13.6633C8.41579 13.8463 8.6398 13.9634 8.88285 13.9923L8.99985 13.9993H14.0848L12.2928 15.7923L12.2098 15.8863C12.0607 16.0787 11.9869 16.3189 12.0022 16.5619C12.0175 16.8049 12.121 17.0339 12.2931 17.206C12.4653 17.3782 12.6943 17.4816 12.9373 17.4969C13.1802 17.5123 13.4204 17.4384 13.6128 17.2893L13.7068 17.2063L17.2068 13.7063L17.3038 13.5943L17.3538 13.5203L17.3908 13.4533L17.4408 13.3413L17.4638 13.2653L17.4888 13.1483Z" fill="url(#paint0_linear_517_231)"/>
<defs>
<linearGradient id="paint0_linear_517_231" x1="3" y1="2.99927" x2="20.2488" y2="0.85615" gradientUnits="userSpaceOnUse">
<stop stop-color="#D466FF"/>
<stop offset="1" stop-color="#9905FC"/>
</linearGradient>
</defs>
</svg>
