<svg width="20" height="41" viewBox="0 0 20 41" fill="none" xmlns="http://www.w3.org/2000/svg">
<path d="M10 7.5V13.5M1 7.5C1 5.9087 1.63214 4.38258 2.75736 3.25736C3.88258 2.13214 5.4087 1.5 7 1.5H13C14.5913 1.5 16.1174 2.13214 17.2426 3.25736C18.3679 4.38258 19 5.9087 19 7.5V22.5C19 24.0913 18.3679 25.6174 17.2426 26.7426C16.1174 27.8679 14.5913 28.5 13 28.5H7C5.4087 28.5 3.88258 27.8679 2.75736 26.7426C1.63214 25.6174 1 24.0913 1 22.5V7.5Z" stroke="white" stroke-width="2" stroke-linecap="round" stroke-linejoin="round"/>
<path d="M4 34L10 40L16 34" stroke="white" stroke-width="2" stroke-linecap="round" stroke-linejoin="round"/>
</svg>
