<svg width="14" height="29" viewBox="0 0 14 29" fill="none" xmlns="http://www.w3.org/2000/svg">
<path d="M7 5.5V9.5M1 5.5C1 4.43913 1.42143 3.42172 2.17157 2.67157C2.92172 1.92143 3.93913 1.5 5 1.5H9C10.0609 1.5 11.0783 1.92143 11.8284 2.67157C12.5786 3.42172 13 4.43913 13 5.5V15.5C13 16.5609 12.5786 17.5783 11.8284 18.3284C11.0783 19.0786 10.0609 19.5 9 19.5H5C3.93913 19.5 2.92172 19.0786 2.17157 18.3284C1.42143 17.5783 1 16.5609 1 15.5V5.5Z" stroke="white" stroke-width="2" stroke-linecap="round" stroke-linejoin="round"/>
<path d="M3 23.5L7 27.5L11 23.5" stroke="white" stroke-width="2" stroke-linecap="round" stroke-linejoin="round"/>
</svg>
