<svg width="23" height="23" viewBox="0 0 23 23" fill="none" xmlns="http://www.w3.org/2000/svg">
<path d="M19.8205 10.438C21.1891 11.3808 22.1618 12.7953 22.5524 14.4107C22.9429 16.026 22.7238 17.7287 21.9369 19.1926C21.1501 20.6564 19.8509 21.7785 18.2882 22.344C16.7254 22.9095 15.009 22.8786 13.4676 22.2572C13.6221 22.0998 13.7706 21.9348 13.9131 21.7623C14.7078 20.8092 15.2969 19.7021 15.6432 18.5104C15.9896 17.3188 16.0858 16.0684 15.9257 14.8379C17.6786 13.8469 19.0496 12.2981 19.8205 10.438Z" fill="white"/>
<path d="M3.18484 10.4324C4.01024 12.4397 5.53405 14.0806 7.4749 15.052C9.41574 16.0235 11.6425 16.2599 13.7441 15.7176C13.7929 16.8827 13.539 18.0406 13.0071 19.0784C12.4753 20.1162 11.6836 20.9986 10.7094 21.6394C9.73507 22.2802 8.61138 22.6577 7.4478 22.7351C6.28422 22.8125 5.12045 22.587 4.06991 22.0808C3.01936 21.5746 2.11788 20.8049 1.45332 19.8466C0.78876 18.8884 0.383796 17.7743 0.277894 16.613C0.171992 15.4516 0.368764 14.2827 0.849034 13.22C1.3293 12.1574 2.07669 11.2373 3.01834 10.5494L3.18484 10.4324Z" fill="white"/>
<path d="M11.5 0.25C12.835 0.25 14.1401 0.645881 15.2501 1.38758C16.3601 2.12928 17.2253 3.18349 17.7362 4.41689C18.2471 5.65029 18.3808 7.00749 18.1203 8.31686C17.8598 9.62623 17.217 10.829 16.273 11.773C15.329 12.717 14.1262 13.3598 12.8169 13.6203C11.5075 13.8808 10.1503 13.7471 8.91689 13.2362C7.68349 12.7253 6.62928 11.8601 5.88758 10.7501C5.14588 9.64007 4.75 8.33502 4.75 7L4.7545 6.74688C4.81999 5.00168 5.55934 3.34979 6.81722 2.13827C8.07509 0.926762 9.75357 0.249936 11.5 0.25Z" fill="white"/>
</svg>
