<svg width="23" height="21" viewBox="0 0 23 21" fill="none" xmlns="http://www.w3.org/2000/svg">
<path d="M18.25 10.5C19.1451 10.5 20.0036 10.1444 20.6365 9.51149C21.2694 8.87855 21.625 8.02011 21.625 7.125V4.875C21.625 3.97989 21.2694 3.12145 20.6365 2.48851C20.0036 1.85558 19.1451 1.5 18.25 1.5H4.75C3.85489 1.5 2.99645 1.85558 2.36351 2.48851C1.73058 3.12145 1.375 3.97989 1.375 4.875V7.125C1.375 8.02011 1.73058 8.87855 2.36351 9.51149C2.99645 10.1444 3.85489 10.5 4.75 10.5M18.25 10.5H4.75M18.25 10.5C19.1451 10.5 20.0036 10.8556 20.6365 11.4885C21.2694 12.1215 21.625 12.9799 21.625 13.875V16.125C21.625 17.0201 21.2694 17.8786 20.6365 18.5115C20.0036 19.1444 19.1451 19.5 18.25 19.5H4.75C3.85489 19.5 2.99645 19.1444 2.36351 18.5115C1.73058 17.8786 1.375 17.0201 1.375 16.125V13.875C1.375 12.9799 1.73058 12.1215 2.36351 11.4885C2.99645 10.8556 3.85489 10.5 4.75 10.5M5.875 6V6.01M5.875 15V15.01" stroke="white" stroke-width="2" stroke-linecap="round" stroke-linejoin="round"/>
</svg>
