<svg width="29" height="20" viewBox="0 0 29 20" fill="none" xmlns="http://www.w3.org/2000/svg">
<path fill-rule="evenodd" clip-rule="evenodd" d="M25.1728 0.597074C26.3776 0.925633 27.3262 1.89368 27.6482 3.12309C28.2334 5.35121 28.2334 10 28.2334 10C28.2334 10 28.2334 14.6487 27.6482 16.8771C27.3262 18.1063 26.3776 19.0744 25.1728 19.403C22.9893 20 14.2335 20 14.2335 20C14.2335 20 5.4776 20 3.29404 19.403C2.08933 19.0744 1.1405 18.1063 0.818555 16.8771C0.233398 14.6487 0.233398 10 0.233398 10C0.233398 10 0.233398 5.35121 0.818555 3.12309C1.1405 1.89368 2.08933 0.925633 3.29404 0.597074C5.4776 0 14.2335 0 14.2335 0C14.2335 0 22.9893 0 25.1728 0.597074ZM11.3698 14.2207L18.688 10.0002L11.3698 5.77923V14.2207Z" fill="white"/>
</svg>
