<svg width="534" height="626" viewBox="0 0 534 626" fill="none" xmlns="http://www.w3.org/2000/svg">
<path d="M498.971 452.511C416.554 573.737 97.3522 666.928 24.4654 605.426C-48.4215 543.924 66.697 278.527 149.114 157.301C231.531 36.0749 347.179 -37.96 420.066 23.5422" stroke="url(#paint0_linear_214_168)" stroke-width="2"/>
<path d="M485.426 445.281C407.347 560.127 104.945 648.413 35.8943 590.148C-33.1563 531.883 75.9033 280.454 153.982 165.608C232.061 50.7626 341.623 -19.3757 410.674 38.8895" stroke="url(#paint1_linear_214_168)" stroke-width="2"/>
<path d="M471.881 438.051C398.139 546.516 112.538 629.898 47.3233 574.87C-17.8912 519.841 85.1095 282.381 158.851 173.916C232.592 65.4503 336.067 -0.791444 401.282 54.2368" stroke="url(#paint2_linear_214_168)" stroke-width="2"/>
<path d="M458.336 430.821C388.932 532.906 120.131 611.383 58.7523 559.592C-2.62608 507.8 94.3158 284.308 163.719 182.223C233.123 80.138 330.511 17.7928 391.89 69.5842" stroke="url(#paint3_linear_214_168)" stroke-width="2"/>
<path d="M444.791 423.591C379.725 519.296 127.724 592.868 70.1813 544.313C12.639 495.759 103.522 286.235 168.588 190.53C233.654 94.8257 324.955 36.3771 382.498 84.9315" stroke="url(#paint4_linear_214_168)" stroke-width="2"/>
<path d="M431.246 416.361C370.518 505.685 135.316 574.353 81.6103 529.035C27.9042 483.718 112.728 288.162 173.457 198.838C234.185 109.513 319.4 54.9614 373.106 100.279" stroke="url(#paint5_linear_214_168)" stroke-width="2"/>
<path d="M417.701 409.131C361.31 492.075 142.909 555.838 93.0393 513.757C43.1693 471.677 121.935 290.089 178.325 207.145C234.716 124.201 313.844 73.5456 363.713 115.626" stroke="url(#paint6_linear_214_168)" stroke-width="2"/>
<path d="M404.156 401.901C352.103 478.465 150.502 537.322 104.468 498.479C58.4345 459.635 131.141 292.016 183.194 215.452C235.246 138.889 308.288 92.1299 354.321 130.973" stroke="url(#paint7_linear_214_168)" stroke-width="2"/>
<path d="M390.611 394.671C342.896 464.855 158.095 518.807 115.897 483.201C73.6997 447.594 140.347 293.943 188.062 223.76C235.777 153.576 302.732 110.714 344.929 146.321" stroke="url(#paint8_linear_214_168)" stroke-width="2"/>
<path d="M377.066 387.441C333.689 451.244 165.688 500.292 127.326 467.923C88.9648 435.553 149.553 295.87 192.931 232.067C236.308 168.264 297.176 129.298 335.537 161.668" stroke="url(#paint9_linear_214_168)" stroke-width="2"/>
<path d="M363.521 380.211C324.481 437.634 173.281 481.777 138.755 452.644C104.23 423.512 158.76 297.797 197.799 240.375C236.839 182.952 291.62 147.883 326.145 177.015" stroke="url(#paint10_linear_214_168)" stroke-width="2"/>
<path d="M349.976 372.981C315.274 424.024 180.873 463.262 150.184 437.366C119.495 411.471 167.966 299.724 202.668 248.682C237.37 197.64 286.064 166.467 316.753 192.363" stroke="url(#paint11_linear_214_168)" stroke-width="2"/>
<path d="M336.431 365.751C306.067 410.413 188.466 444.747 161.613 422.088C134.76 399.43 177.172 301.652 207.536 256.989C237.9 212.327 280.508 185.051 307.361 207.71" stroke="url(#paint12_linear_214_168)" stroke-width="2"/>
<path d="M322.886 358.521C296.86 396.803 196.059 426.232 173.042 406.81C150.025 387.388 186.379 303.579 212.405 265.297C238.431 227.015 274.952 203.635 297.969 223.057" stroke="url(#paint13_linear_214_168)" stroke-width="2"/>
<path d="M309.341 351.291C287.652 383.193 203.652 407.717 184.471 391.532C165.291 375.347 195.585 305.506 217.273 273.604C238.962 241.703 269.396 222.22 288.577 238.405" stroke="url(#paint14_linear_214_168)" stroke-width="2"/>
<path d="M295.796 344.061C278.445 369.582 211.245 389.202 195.9 376.254C180.556 363.306 204.791 307.433 222.142 281.912C239.493 256.39 263.84 240.804 279.185 253.752" stroke="url(#paint15_linear_214_168)" stroke-width="2"/>
<path d="M282.251 336.831C269.238 355.972 218.838 370.686 207.329 360.976C195.821 351.265 213.997 309.36 227.011 290.219C240.024 271.078 258.284 259.388 269.792 269.099" stroke="url(#paint16_linear_214_168)" stroke-width="2"/>
<path d="M268.706 329.601C260.031 342.362 226.43 352.171 218.758 345.697C211.086 339.224 223.204 311.287 231.879 298.526C240.555 285.766 252.728 277.973 260.4 284.447" stroke="url(#paint17_linear_214_168)" stroke-width="2"/>
<path d="M255.161 322.371C250.823 328.751 234.023 333.656 230.187 330.419C226.351 327.182 232.41 313.214 236.748 306.834C241.085 300.453 247.172 296.557 251.008 299.794" stroke="url(#paint18_linear_214_168)" stroke-width="2"/>
<defs>
<linearGradient id="paint0_linear_214_168" x1="1713.84" y1="-70.9681" x2="2431.18" y2="2775.85" gradientUnits="userSpaceOnUse">
<stop offset="0.45" stop-color="#9905FC"/>
<stop offset="1" stop-color="#D466FF"/>
</linearGradient>
<linearGradient id="paint1_linear_214_168" x1="1713.84" y1="-70.9681" x2="2431.18" y2="2775.85" gradientUnits="userSpaceOnUse">
<stop offset="0.45" stop-color="#9905FC"/>
<stop offset="1" stop-color="#D466FF"/>
</linearGradient>
<linearGradient id="paint2_linear_214_168" x1="1713.84" y1="-70.9681" x2="2431.18" y2="2775.85" gradientUnits="userSpaceOnUse">
<stop offset="0.45" stop-color="#9905FC"/>
<stop offset="1" stop-color="#D466FF"/>
</linearGradient>
<linearGradient id="paint3_linear_214_168" x1="1713.84" y1="-70.9681" x2="2431.18" y2="2775.85" gradientUnits="userSpaceOnUse">
<stop offset="0.45" stop-color="#9905FC"/>
<stop offset="1" stop-color="#D466FF"/>
</linearGradient>
<linearGradient id="paint4_linear_214_168" x1="1713.84" y1="-70.9681" x2="2431.18" y2="2775.85" gradientUnits="userSpaceOnUse">
<stop offset="0.45" stop-color="#9905FC"/>
<stop offset="1" stop-color="#D466FF"/>
</linearGradient>
<linearGradient id="paint5_linear_214_168" x1="1713.84" y1="-70.9681" x2="2431.18" y2="2775.85" gradientUnits="userSpaceOnUse">
<stop offset="0.45" stop-color="#9905FC"/>
<stop offset="1" stop-color="#D466FF"/>
</linearGradient>
<linearGradient id="paint6_linear_214_168" x1="1713.84" y1="-70.9681" x2="2431.18" y2="2775.85" gradientUnits="userSpaceOnUse">
<stop offset="0.45" stop-color="#9905FC"/>
<stop offset="1" stop-color="#D466FF"/>
</linearGradient>
<linearGradient id="paint7_linear_214_168" x1="1713.84" y1="-70.9681" x2="2431.18" y2="2775.85" gradientUnits="userSpaceOnUse">
<stop offset="0.45" stop-color="#9905FC"/>
<stop offset="1" stop-color="#D466FF"/>
</linearGradient>
<linearGradient id="paint8_linear_214_168" x1="1713.84" y1="-70.9681" x2="2431.18" y2="2775.85" gradientUnits="userSpaceOnUse">
<stop offset="0.45" stop-color="#9905FC"/>
<stop offset="1" stop-color="#D466FF"/>
</linearGradient>
<linearGradient id="paint9_linear_214_168" x1="1713.84" y1="-70.9681" x2="2431.18" y2="2775.85" gradientUnits="userSpaceOnUse">
<stop offset="0.45" stop-color="#9905FC"/>
<stop offset="1" stop-color="#D466FF"/>
</linearGradient>
<linearGradient id="paint10_linear_214_168" x1="1713.84" y1="-70.9681" x2="2431.18" y2="2775.85" gradientUnits="userSpaceOnUse">
<stop offset="0.45" stop-color="#9905FC"/>
<stop offset="1" stop-color="#D466FF"/>
</linearGradient>
<linearGradient id="paint11_linear_214_168" x1="1713.84" y1="-70.9681" x2="2431.18" y2="2775.85" gradientUnits="userSpaceOnUse">
<stop offset="0.45" stop-color="#9905FC"/>
<stop offset="1" stop-color="#D466FF"/>
</linearGradient>
<linearGradient id="paint12_linear_214_168" x1="1713.84" y1="-70.9681" x2="2431.18" y2="2775.85" gradientUnits="userSpaceOnUse">
<stop offset="0.45" stop-color="#9905FC"/>
<stop offset="1" stop-color="#D466FF"/>
</linearGradient>
<linearGradient id="paint13_linear_214_168" x1="1713.84" y1="-70.9681" x2="2431.18" y2="2775.85" gradientUnits="userSpaceOnUse">
<stop offset="0.45" stop-color="#9905FC"/>
<stop offset="1" stop-color="#D466FF"/>
</linearGradient>
<linearGradient id="paint14_linear_214_168" x1="1713.84" y1="-70.9681" x2="2431.18" y2="2775.85" gradientUnits="userSpaceOnUse">
<stop offset="0.45" stop-color="#9905FC"/>
<stop offset="1" stop-color="#D466FF"/>
</linearGradient>
<linearGradient id="paint15_linear_214_168" x1="1713.84" y1="-70.9681" x2="2431.18" y2="2775.85" gradientUnits="userSpaceOnUse">
<stop offset="0.45" stop-color="#9905FC"/>
<stop offset="1" stop-color="#D466FF"/>
</linearGradient>
<linearGradient id="paint16_linear_214_168" x1="1713.84" y1="-70.9681" x2="2431.18" y2="2775.85" gradientUnits="userSpaceOnUse">
<stop offset="0.45" stop-color="#9905FC"/>
<stop offset="1" stop-color="#D466FF"/>
</linearGradient>
<linearGradient id="paint17_linear_214_168" x1="1713.84" y1="-70.9681" x2="2431.18" y2="2775.85" gradientUnits="userSpaceOnUse">
<stop offset="0.45" stop-color="#9905FC"/>
<stop offset="1" stop-color="#D466FF"/>
</linearGradient>
<linearGradient id="paint18_linear_214_168" x1="1713.84" y1="-70.9681" x2="2431.18" y2="2775.85" gradientUnits="userSpaceOnUse">
<stop offset="0.45" stop-color="#9905FC"/>
<stop offset="1" stop-color="#D466FF"/>
</linearGradient>
</defs>
</svg>
