<svg width="290" height="116" viewBox="0 0 290 116" fill="none" xmlns="http://www.w3.org/2000/svg">
<path d="M138.568 115.997C120.869 115.997 107.083 107.841 99.7438 93.0265C94.6449 82.7353 94.4929 72.6249 94.4929 71.5061L121.667 71.4959C121.667 71.4959 121.812 76.6295 124.333 81.3095C126.154 84.6899 129.418 88.5682 138.568 88.5682C146.715 88.5682 149.6 85.1776 151.202 82.2237C153.382 78.2054 153.605 73.6926 153.621 73.2526V27.5546H42.8048L35.1176 0.122793H180.795V73.3719C180.795 74.443 180.653 84.1236 175.781 93.9611C168.742 108.172 155.524 116 138.568 116V115.997Z" fill="#F0F0F0"/>
<path d="M164.661 115.785C164.539 115.857 164.414 115.925 164.292 115.997H180.856V98.5933C176.95 105.951 171.51 111.733 164.664 115.785H164.661Z" fill="#F0F0F0"/>
<path d="M60.2234 115.922H33.0497L0 0.0443455H27.1737L60.2234 115.922Z" fill="#F0F0F0"/>
<path d="M70.6678 34.6564L45.535 115.922H72.7053L97.838 34.67L70.6678 34.6564Z" fill="#F0F0F0"/>
<path d="M202.552 0.115975L175.379 0.119389L200.241 115.939H227.415L202.552 0.115975Z" fill="#F0F0F0"/>
<path d="M262.826 0L290 0.0170511V115.877H262.826V0Z" fill="#F0F0F0"/>
<path d="M241.174 0L268.348 0.00341439L243.644 115.935H216.47L241.174 0Z" fill="#F0F0F0"/>
</svg>
