<svg width="1920" height="169" viewBox="0 0 1920 169" fill="none" xmlns="http://www.w3.org/2000/svg">
<path d="M0 68.7151L40 71.2151C80 73.7151 160 78.7151 240 77.0151C320 75.4151 400 67.0151 480 49.2151C560 31.4151 640 4.01512 720 4.21512C800 4.41512 880 32.0151 960 41.4151C1040 50.7151 1120 41.7151 1200 30.2151C1280 18.7151 1360 4.7151 1440 1.0151C1520 -2.5849 1600 4.0151 1680 11.0151C1760 18.0151 1840 25.4151 1880 29.0151L1920 32.7151V168.715H1880C1840 168.715 1760 168.715 1680 168.715C1600 168.715 1520 168.715 1440 168.715C1360 168.715 1280 168.715 1200 168.715C1120 168.715 1040 168.715 960 168.715C880 168.715 800 168.715 720 168.715C640 168.715 560 168.715 480 168.715C400 168.715 320 168.715 240 168.715C160 168.715 80 168.715 40 168.715H0V68.7151Z" fill="#D466FF"/>
<path d="M0 18.7151L40 29.2151C80 39.7151 160 60.7151 240 63.4151C320 66.0151 400 50.4151 480 43.5151C560 36.7151 640 38.7151 720 43.7151C800 48.7151 880 56.7151 960 68.9151C1040 81.0151 1120 97.4151 1200 94.4151C1280 91.4151 1360 69.0151 1440 53.7151C1520 38.4151 1600 30.0151 1680 26.9151C1760 23.7151 1840 25.7151 1880 26.7151L1920 27.7151V168.715H1880C1840 168.715 1760 168.715 1680 168.715C1600 168.715 1520 168.715 1440 168.715C1360 168.715 1280 168.715 1200 168.715C1120 168.715 1040 168.715 960 168.715C880 168.715 800 168.715 720 168.715C640 168.715 560 168.715 480 168.715C400 168.715 320 168.715 240 168.715C160 168.715 80 168.715 40 168.715H0V18.7151Z" fill="#BA41FD"/>
<path d="M0 95.7151L40 102.515C80 109.415 160 123.015 240 125.415C320 127.715 400 118.715 480 108.415C560 98.0151 640 86.4151 720 93.7151C800 101.015 880 127.415 960 136.915C1040 146.415 1120 139.015 1200 138.715C1280 138.415 1360 145.015 1440 148.715C1520 152.415 1600 153.015 1680 145.715C1760 138.415 1840 123.015 1880 115.415L1920 107.715V168.715H1880C1840 168.715 1760 168.715 1680 168.715C1600 168.715 1520 168.715 1440 168.715C1360 168.715 1280 168.715 1200 168.715C1120 168.715 1040 168.715 960 168.715C880 168.715 800 168.715 720 168.715C640 168.715 560 168.715 480 168.715C400 168.715 320 168.715 240 168.715C160 168.715 80 168.715 40 168.715H0V95.7151Z" fill="#9905FC"/>
</svg>
